<svg width="14" height="14" viewBox="0 0 14 14" fill="none" xmlns="http://www.w3.org/2000/svg">
<path d="M0.318182 0.318359C0.14245 0.318359 0 0.460809 0 0.636541V13.3638C0 13.5396 0.14245 13.682 0.318182 13.682H13.6818C13.8575 13.682 14 13.5396 14 13.3638C14 13.1881 13.8575 13.0456 13.6818 13.0456H0.636364V0.636541C0.636364 0.460809 0.493914 0.318359 0.318182 0.318359ZM11.9318 2.38656C11.3205 2.38656 10.8182 2.88892 10.8182 3.50019C10.8182 3.75142 10.9045 3.97926 11.0469 4.16638L9.15767 6.86596C9.07768 6.84746 8.9944 6.8411 8.90909 6.8411C8.59853 6.8411 8.31638 6.96646 8.11364 7.1742L6.78125 6.39863C6.8194 6.28675 6.84091 6.16981 6.84091 6.04564C6.84091 5.43437 6.33855 4.93201 5.72727 4.93201C5.116 4.93201 4.61364 5.43437 4.61364 6.04564C4.61364 6.29688 4.69993 6.52471 4.84233 6.71184L2.95312 9.41142C2.87313 9.39292 2.78985 9.38655 2.70455 9.38655C2.09327 9.38655 1.59091 9.88891 1.59091 10.5002C1.59091 11.1115 2.09327 11.6138 2.70455 11.6138C3.31582 11.6138 3.81818 11.1115 3.81818 10.5002C3.81818 10.2019 3.69847 9.92531 3.50496 9.72462L5.34943 7.08968C5.46778 7.13297 5.59465 7.15928 5.72727 7.15928C5.98578 7.15928 6.22356 7.06561 6.41335 6.91568L7.8203 7.73598C7.80599 7.80675 7.79545 7.88001 7.79545 7.95473C7.79545 8.56601 8.29782 9.06837 8.90909 9.06837C9.52037 9.06837 10.0227 8.56601 10.0227 7.95473C10.0227 7.65649 9.90301 7.37986 9.70951 7.17916L11.554 4.54422C11.6723 4.58751 11.7992 4.61382 11.9318 4.61382C12.5431 4.61382 13.0455 4.11146 13.0455 3.50019C13.0455 2.88892 12.5431 2.38656 11.9318 2.38656Z" fill="white"/>
</svg>
