<svg width="14" height="14" viewBox="0 0 14 14" fill="none" xmlns="http://www.w3.org/2000/svg">
<path fill-rule="evenodd" clip-rule="evenodd" d="M7 10.1278C7.20488 10.1278 7.39051 10.2109 7.52488 10.3453C7.65925 10.4796 7.74235 10.6651 7.74235 10.8702C7.74235 11.0752 7.65925 11.2607 7.52488 11.395C7.39051 11.5292 7.20488 11.6123 7 11.6123C6.79512 11.6123 6.60949 11.5292 6.47512 11.3948C6.34075 11.2605 6.25765 11.075 6.25765 10.87C6.25765 10.6649 6.34075 10.4795 6.47512 10.3451C6.60949 10.2109 6.79512 10.1278 7 10.1278ZM10.9629 6.36426L13.8236 11.3192C13.9406 11.5216 13.9991 11.7385 13.9991 11.9551H14C14 12.1705 13.9411 12.3876 13.8236 12.5912C13.7061 12.7948 13.5473 12.9543 13.3602 13.0622C13.1742 13.1694 12.9571 13.2269 12.7213 13.2269H1.2787C1.04291 13.2269 0.82563 13.1697 0.639628 13.0626C0.452514 12.9545 0.293903 12.7946 0.176379 12.5912C0.0588545 12.3876 0 12.1707 0 11.9551H0.000925232C0.000925232 11.7385 0.0594097 11.5216 0.176379 11.3192L5.89768 1.40955C6.01557 1.20541 6.174 1.04587 6.36019 0.938341C6.54637 0.830811 6.76384 0.773438 7 0.773438C7.23616 0.773438 7.45362 0.830811 7.63981 0.938341C7.826 1.04587 7.98443 1.20541 8.10232 1.40955L10.9629 6.36426ZM7.62815 9.03456C7.62556 9.20372 7.55542 9.35733 7.44382 9.46893C7.33018 9.58257 7.17305 9.65327 7 9.65327C6.82695 9.65327 6.66982 9.58257 6.55618 9.46893C6.44458 9.35733 6.37444 9.2039 6.37185 9.03456L6.09108 5.6369C6.08627 5.60174 6.08387 5.56898 6.08387 5.539C6.08387 5.32449 6.17863 5.13164 6.32687 4.98506C6.46531 4.84829 6.65353 4.75205 6.85305 4.71984C6.9045 4.71152 6.95355 4.70726 6.99981 4.70726C7.04608 4.70726 7.09531 4.71152 7.14658 4.71984C7.34684 4.75205 7.53561 4.84829 7.67368 4.98506C7.82119 5.13109 7.91576 5.32375 7.91576 5.539C7.91576 5.56898 7.91336 5.60174 7.90836 5.6369L7.62815 9.03456Z" fill="white"/>
</svg>
