<svg width="14" height="12" viewBox="0 0 14 12" fill="none" xmlns="http://www.w3.org/2000/svg">
<g clip-path="url(#clip0_737_440)">
<path d="M2.16755 1.19434H2.16754C1.85826 1.19434 1.60754 1.419 1.60754 1.69613V11.1988C1.60754 11.476 1.85826 11.7006 2.16755 11.7006C2.47683 11.7006 2.72755 11.476 2.72755 11.1988V1.69613C2.72755 1.419 2.47683 1.19434 2.16755 1.19434Z" fill="white"/>
<path d="M5.52753 1.19434H5.52753C5.21825 1.19434 4.96753 1.419 4.96753 1.69613V11.1988C4.96753 11.476 5.21825 11.7006 5.52753 11.7006C5.83681 11.7006 6.08753 11.476 6.08753 11.1988V1.69613C6.08753 1.419 5.83681 1.19434 5.52753 1.19434Z" fill="white"/>
<path d="M7.80032 2.13867L7.80032 2.13867C7.52025 2.25625 7.39958 2.555 7.5308 2.80596L12.0301 11.411C12.1613 11.662 12.4947 11.7701 12.7748 11.6525C13.0548 11.535 13.1755 11.2362 13.0443 10.9853L8.54501 2.38017C8.41379 2.12922 8.08038 2.02109 7.80032 2.13867Z" fill="white"/>
</g>
<defs>
<clipPath id="clip0_737_440">
<rect width="14" height="11.6667" fill="white" transform="translate(0 0.166992)"/>
</clipPath>
</defs>
</svg>
